<?xml version="1.0" encoding="utf-8" ?>
<svg xmlns="http://www.w3.org/2000/svg" xmlns:xlink="http://www.w3.org/1999/xlink" width="512" height="512">
	<path fill="#434C54" d="M255.914 74.125L256.736 74.0717L262.036 79.7715L278.125 96.3597L310.84 129.977L345.486 165.68L359.896 180.432C362.305 182.949 364.83 185.361 367.081 188.025C373.891 196.084 380.157 204.983 386.006 213.763C404.925 242.164 419.103 274.307 423.352 308.375C424.642 318.714 424.738 329.043 424.748 339.441L424.748 354.133C424.743 357.223 424.991 360.465 424.381 363.504L302.503 363.374C302.136 369.329 302.487 375.459 302.488 381.438L302.481 417.469L302.477 428.954C302.478 430.94 302.678 433.164 302.36 435.12L267.534 435.23L267.595 363.324L255.33 363.396L244.611 363.322L244.917 435.237L209.861 435.223L210.055 363.344L87.481 363.466C87.2083 362.955 87.3026 362.178 87.2862 361.604L87.1515 356.439L87.3376 318.279L88.5775 306C89.3745 299.339 90.8861 292.758 92.4662 286.25C100.267 254.119 117.379 225.09 136.959 198.782L159.883 170.215L169.428 159.98L192.611 135.372L212.125 114.611L237.622 90.2013C243.582 84.721 249.56 79.1473 255.914 74.125ZM255.771 120.125L236.818 139.015L217.81 157.786L201.218 175.731L187.121 191.059L180.285 199.435L168.396 213.906L159.566 226.176C153.782 234.377 148.093 242.695 143.177 251.455C130.246 274.498 121.943 299.75 120.981 326.256L120.864 329.958L147.246 330.005C148.164 321.433 149.305 313.054 151.41 304.678C159.356 273.062 177.471 245.308 198.391 220.728L211.489 206.402L229.816 186.478L249.189 165.387L253.68 160.496C254.3 159.823 255.105 158.723 255.866 158.233C256.089 158.089 256.15 158.089 256.375 158.031L256.545 158.189C258.271 159.821 259.728 161.72 261.408 163.4L268.152 169.824L284.448 187.611L301.16 205.92L313.802 221.108L327.289 237.462C336.256 249.192 344.155 262.19 350.297 275.625C355.667 287.37 359.946 299.567 362.268 312.297C363.013 316.378 363.671 320.445 364.035 324.58C364.097 325.282 364.182 329.7 364.417 329.974C364.499 330.07 364.669 329.97 364.795 329.967L365.95 329.947L390.333 329.932C390.724 329.931 390.579 329.948 390.948 329.809L390.885 329.311C390.494 326.082 390.636 322.855 390.41 319.621C389.988 313.559 388.988 307.202 387.709 301.273C378.066 256.562 349.645 218.281 319.648 184.844L302.865 166.868L284 146.837L269.785 132.988L260.897 124.352C259.516 122.985 258.198 121.328 256.702 120.105L256.502 119.954L255.771 120.125Z"/>
</svg>
